<svg width="16" height="25" viewBox="0 0 16 25" fill="none" xmlns="http://www.w3.org/2000/svg">
<path d="M1.21252 24.2042C0.807654 23.7993 0.605225 23.284 0.605225 22.6583C0.605225 22.0326 0.807654 21.5174 1.21252 21.1125L9.82502 12.5L1.21252 3.8875C0.807654 3.48264 0.605225 2.96736 0.605225 2.34167C0.605225 1.71597 0.807654 1.20069 1.21252 0.795832C1.61738 0.390971 2.13265 0.188541 2.75835 0.188541C3.38404 0.188541 3.89932 0.390971 4.30418 0.795832L14.4625 10.9542C14.6833 11.175 14.8401 11.4142 14.9329 11.6719C15.0242 11.9295 15.0698 12.2056 15.0698 12.5C15.0698 12.7944 15.0242 13.0705 14.9329 13.3281C14.8401 13.5858 14.6833 13.825 14.4625 14.0458L4.30418 24.2042C3.89932 24.609 3.38404 24.8115 2.75835 24.8115C2.13265 24.8115 1.61738 24.609 1.21252 24.2042Z" fill="#EEF2F1"/>
</svg>
