<svg width="28" height="34" viewBox="0 0 28 34" fill="none" xmlns="http://www.w3.org/2000/svg">
<path opacity="0.9" d="M27.75 14.5C27.75 18.0313 26.5156 21.25 24.2813 23.5781C22.0469 25.9063 19.3438 27 16.5 27C13.6563 27 11.8438 26.0781 10.6563 25.125L8.96875 32.2813C8.9026 32.5554 8.74676 32.7997 8.52595 32.9752C8.30515 33.1507 8.03205 33.2474 7.75 33.25L7.46875 33.2188C7.30865 33.1819 7.15739 33.1139 7.0236 33.0185C6.88982 32.9232 6.77614 32.8024 6.68907 32.6631C6.602 32.5238 6.54324 32.3687 6.51616 32.2066C6.48908 32.0446 6.49421 31.8788 6.53125 31.7188L11.5313 10.4688C11.6058 10.1455 11.8058 9.86516 12.0871 9.68935C12.3684 9.51353 12.708 9.45666 13.0313 9.53125C13.3545 9.60585 13.6348 9.80579 13.8107 10.0871C13.9865 10.3684 14.0433 10.708 13.9688 11.0313L11.3281 22.25C11.8125 22.9375 13.2656 24.5 16.5 24.5C20.7969 24.5 25.25 20.7656 25.25 14.5C25.25 12.7425 24.8382 11.0095 24.0477 9.43984C23.2572 7.87018 22.1099 6.50756 20.6978 5.46122C19.2858 4.41488 17.6482 3.71392 15.9164 3.41454C14.1846 3.11515 12.4068 3.22567 10.7254 3.73722C9.04403 4.24878 7.50588 5.14715 6.23428 6.36032C4.96268 7.57348 3.99299 9.0677 3.40296 10.7232C2.81293 12.3786 2.61896 14.1493 2.8366 15.8933C3.05424 17.6372 3.67745 19.3059 4.65625 20.7656C4.74759 20.9021 4.81116 21.0552 4.84332 21.2162C4.87548 21.3772 4.8756 21.543 4.84368 21.704C4.81176 21.8651 4.74841 22.0183 4.65727 22.1549C4.56613 22.2914 4.44898 22.4087 4.3125 22.5C4.17675 22.5934 4.02366 22.6587 3.86227 22.692C3.70088 22.7253 3.53446 22.726 3.37282 22.6939C3.21117 22.6619 3.05758 22.5978 2.92109 22.5055C2.78461 22.4131 2.66799 22.2944 2.57813 22.1563C1.38231 20.3721 0.621103 18.3325 0.35552 16.2012C0.0899381 14.0698 0.327367 11.9058 1.04878 9.88273C1.77019 7.85964 2.95551 6.03369 4.50974 4.55123C6.06398 3.06877 7.94389 1.97104 9.9988 1.34602C12.0537 0.720999 14.2265 0.586074 16.3429 0.95206C18.4594 1.31804 20.4607 2.17476 22.1864 3.45354C23.9121 4.73232 25.3142 6.39759 26.2804 8.31589C27.2465 10.2342 27.7499 12.3521 27.75 14.5Z" fill="#AFAFAF"/>
</svg>
