<svg width="70" height="70" viewBox="0 0 70 70" fill="none" xmlns="http://www.w3.org/2000/svg">
<rect width="70" height="70" fill="black"/>
<path opacity="0.9" d="M48.75 32.5C48.75 36.0313 47.5156 39.25 45.2813 41.5781C43.0469 43.9063 40.3438 45 37.5 45C34.6563 45 32.8438 44.0781 31.6563 43.125L29.9688 50.2813C29.9026 50.5554 29.7468 50.7997 29.526 50.9752C29.3052 51.1507 29.032 51.2474 28.75 51.25L28.4688 51.2188C28.3087 51.1819 28.1574 51.1139 28.0236 51.0185C27.8898 50.9232 27.7761 50.8024 27.6891 50.6631C27.602 50.5238 27.5432 50.3687 27.5162 50.2066C27.4891 50.0446 27.4942 49.8788 27.5313 49.7188L32.5313 28.4688C32.6058 28.1455 32.8058 27.8652 33.0871 27.6893C33.3684 27.5135 33.708 27.4567 34.0313 27.5313C34.3545 27.6058 34.6348 27.8058 34.8107 28.0871C34.9865 28.3684 35.0433 28.708 34.9688 29.0313L32.3281 40.25C32.8125 40.9375 34.2656 42.5 37.5 42.5C41.7969 42.5 46.25 38.7656 46.25 32.5C46.25 30.7425 45.8382 29.0095 45.0477 27.4398C44.2572 25.8702 43.1099 24.5076 41.6978 23.4612C40.2858 22.4149 38.6482 21.7139 36.9164 21.4145C35.1846 21.1151 33.4068 21.2257 31.7254 21.7372C30.044 22.2488 28.5059 23.1472 27.2343 24.3603C25.9627 25.5735 24.993 27.0677 24.403 28.7232C23.8129 30.3786 23.619 32.1493 23.8366 33.8933C24.0542 35.6372 24.6774 37.3059 25.6563 38.7656C25.7476 38.9021 25.8112 39.0552 25.8433 39.2162C25.8755 39.3772 25.8756 39.543 25.8437 39.704C25.8118 39.8651 25.7484 40.0183 25.6573 40.1549C25.5661 40.2914 25.449 40.4087 25.3125 40.5C25.1767 40.5934 25.0237 40.6587 24.8623 40.692C24.7009 40.7253 24.5345 40.726 24.3728 40.6939C24.2112 40.6619 24.0576 40.5978 23.9211 40.5055C23.7846 40.4131 23.668 40.2944 23.5781 40.1563C22.3823 38.3721 21.6211 36.3325 21.3555 34.2012C21.0899 32.0698 21.3274 29.9058 22.0488 27.8827C22.7702 25.8596 23.9555 24.0337 25.5097 22.5512C27.064 21.0688 28.9439 19.971 30.9988 19.346C33.0537 18.721 35.2265 18.5861 37.3429 18.9521C39.4594 19.318 41.4607 20.1748 43.1864 21.4535C44.9121 22.7323 46.3142 24.3976 47.2804 26.3159C48.2465 28.2342 48.7499 30.3521 48.75 32.5Z" fill="#EEF2F1"/>
</svg>
